<mxfile host="app.diagrams.net" modified="2024-03-18T09:51:37.678Z" agent="Mozilla/5.0 (Windows NT 10.0; Win64; x64) AppleWebKit/537.36 (KHTML, like Gecko) Chrome/122.0.0.0 Safari/537.36" etag="RLMO0HwrTwMNEe8wO6NG" version="24.0.7" type="device">
  <diagram name="페이지-1" id="TSWMRtUax1StzDSj7Poq">
    <mxGraphModel dx="1246" dy="807" grid="1" gridSize="10" guides="1" tooltips="1" connect="1" arrows="1" fold="1" page="1" pageScale="1" pageWidth="1169" pageHeight="827" math="0" shadow="0">
      <root>
        <mxCell id="0" />
        <mxCell id="1" parent="0" />
        <mxCell id="MY5a4iw0nsqSbnnlH3jM-13" value="" style="rounded=0;whiteSpace=wrap;html=1;" vertex="1" parent="1">
          <mxGeometry x="90" y="100" width="910" height="340" as="geometry" />
        </mxCell>
        <mxCell id="MY5a4iw0nsqSbnnlH3jM-2" value="" style="rounded=0;whiteSpace=wrap;html=1;" vertex="1" parent="1">
          <mxGeometry x="100" y="110" width="420" height="320" as="geometry" />
        </mxCell>
        <mxCell id="MY5a4iw0nsqSbnnlH3jM-3" value="불량 검출" style="rounded=0;whiteSpace=wrap;html=1;" vertex="1" parent="1">
          <mxGeometry x="250" y="185" width="120" height="60" as="geometry" />
        </mxCell>
        <mxCell id="MY5a4iw0nsqSbnnlH3jM-4" value="사진 확인" style="rounded=0;whiteSpace=wrap;html=1;" vertex="1" parent="1">
          <mxGeometry x="250" y="295" width="120" height="60" as="geometry" />
        </mxCell>
        <mxCell id="MY5a4iw0nsqSbnnlH3jM-5" value="" style="rounded=0;whiteSpace=wrap;html=1;" vertex="1" parent="1">
          <mxGeometry x="570" y="110" width="420" height="320" as="geometry" />
        </mxCell>
        <mxCell id="MY5a4iw0nsqSbnnlH3jM-7" value="" style="rounded=0;whiteSpace=wrap;html=1;" vertex="1" parent="1">
          <mxGeometry x="590" y="150" width="280" height="190" as="geometry" />
        </mxCell>
        <mxCell id="MY5a4iw0nsqSbnnlH3jM-8" value="불량품" style="rounded=0;whiteSpace=wrap;html=1;" vertex="1" parent="1">
          <mxGeometry x="880" y="200" width="100" height="30" as="geometry" />
        </mxCell>
        <mxCell id="MY5a4iw0nsqSbnnlH3jM-9" value="양품" style="rounded=0;whiteSpace=wrap;html=1;" vertex="1" parent="1">
          <mxGeometry x="880" y="150" width="100" height="30" as="geometry" />
        </mxCell>
        <mxCell id="MY5a4iw0nsqSbnnlH3jM-10" value="홈" style="rounded=0;whiteSpace=wrap;html=1;" vertex="1" parent="1">
          <mxGeometry x="940" y="120" width="30" height="20" as="geometry" />
        </mxCell>
        <mxCell id="MY5a4iw0nsqSbnnlH3jM-11" value="캡쳐" style="rounded=0;whiteSpace=wrap;html=1;" vertex="1" parent="1">
          <mxGeometry x="870" y="380" width="110" height="40" as="geometry" />
        </mxCell>
      </root>
    </mxGraphModel>
  </diagram>
</mxfile>
